<svg width="26" height="25" viewBox="0 0 26 25" fill="none" xmlns="http://www.w3.org/2000/svg">
<path d="M13.0706 20.8775L7.02976 24.5165C6.76289 24.6863 6.4839 24.7591 6.19278 24.7348C5.90166 24.7106 5.64692 24.6135 5.42858 24.4437C5.21024 24.2739 5.04042 24.0619 4.91912 23.8076C4.79781 23.5534 4.77355 23.2681 4.84633 22.9517L6.44751 16.0739L1.09813 11.4524C0.855526 11.234 0.704142 10.9851 0.643976 10.7056C0.583811 10.4262 0.601763 10.1535 0.697834 9.88758C0.793905 9.62168 0.939466 9.40334 1.13452 9.23255C1.32957 9.06176 1.59643 8.95259 1.93511 8.90504L8.99484 8.2864L11.7241 1.80892C11.8454 1.51779 12.0337 1.29945 12.2889 1.15389C12.5441 1.00833 12.8047 0.935547 13.0706 0.935547C13.3364 0.935547 13.597 1.00833 13.8522 1.15389C14.1074 1.29945 14.2957 1.51779 14.417 1.80892L17.1463 8.2864L24.206 8.90504C24.5456 8.95356 24.8125 9.06273 25.0066 9.23255C25.2007 9.40237 25.3462 9.62071 25.4433 9.88758C25.5403 10.1544 25.5588 10.4276 25.4986 10.7071C25.4384 10.9866 25.2866 11.235 25.043 11.4524L19.6936 16.0739L21.2948 22.9517C21.3676 23.2671 21.3433 23.5524 21.222 23.8076C21.1007 24.0628 20.9309 24.2749 20.7125 24.4437C20.4942 24.6126 20.2395 24.7096 19.9483 24.7348C19.6572 24.7601 19.3782 24.6873 19.1114 24.5165L13.0706 20.8775Z" fill="white"/>
</svg>
