<svg width="115" height="115" viewBox="0 0 115 115" fill="none" xmlns="http://www.w3.org/2000/svg">
<rect width="115" height="115" rx="57.5" fill="#002768"/>
<path d="M54.566 80.8889C52.0475 80.8889 49.7215 80.3407 47.5882 79.2444C45.4845 78.1185 43.7808 76.6519 42.4771 74.8444L46.5215 66.8889C46.9956 68.7556 47.9586 70.3556 49.4104 71.6889C50.8919 73.0222 52.64 73.6889 54.6549 73.6889C56.0178 73.6889 57.2326 73.3778 58.2993 72.7556C59.3956 72.1333 60.2549 71.2889 60.8771 70.2222C61.5289 69.1556 61.8549 67.9556 61.8549 66.6222C61.8549 65.3185 61.5438 64.1481 60.9215 63.1111C60.3289 62.0444 59.4697 61.2 58.3438 60.5778C57.2475 59.9556 55.9586 59.6444 54.4771 59.6444C53.5882 59.6444 52.7438 59.763 51.9438 60C51.1438 60.2074 50.3141 60.5333 49.4549 60.9778L56.6549 46.9333H45.1438V40H68.0771L60.4771 54.1778C62.1956 54.8 63.7215 55.7333 65.0549 56.9778C66.3882 58.1926 67.44 59.6444 68.2104 61.3333C69.0104 63.0222 69.4104 64.8593 69.4104 66.8444C69.4104 69.4815 68.7289 71.8667 67.366 74C66.003 76.1333 64.1956 77.8222 61.9438 79.0667C59.6919 80.2815 57.2326 80.8889 54.566 80.8889Z" fill="white"/>
</svg>
