<svg width="115" height="115" viewBox="0 0 115 115" fill="none" xmlns="http://www.w3.org/2000/svg">
<rect width="115" height="115" rx="57.5" fill="#E64E37"/>
<path d="M44.166 80L60.4326 56.1333C61.1141 55.0963 61.5734 54.2519 61.8104 53.6C62.0475 52.9185 62.166 52.2963 62.166 51.7333C62.166 50.2222 61.6326 48.9481 60.566 47.9111C59.4993 46.8444 58.1808 46.3111 56.6104 46.3111C55.04 46.3111 53.7215 46.8444 52.6549 47.9111C51.6178 48.9481 51.0993 50.2222 51.0993 51.7333C51.0993 53.7481 51.9734 55.4963 53.7215 56.9778H45.0104C44.0919 55.3185 43.6326 53.5556 43.6326 51.6889C43.6326 49.437 44.1956 47.363 45.3215 45.4667C46.4771 43.5704 48.0326 42.0444 49.9882 40.8889C51.9734 39.7037 54.1956 39.1111 56.6549 39.1111C59.0549 39.1111 61.2623 39.6889 63.2771 40.8444C65.2919 41.9704 66.8919 43.4815 68.0771 45.3778C69.2919 47.2741 69.8993 49.3926 69.8993 51.7333C69.8993 53.1556 69.6326 54.5185 69.0993 55.8222C68.5956 57.0963 67.7808 58.5185 66.6549 60.0889L57.6326 72.8H70.3882V80H44.166Z" fill="white"/>
</svg>
